{"title":"Salt.UNRATED.DC.DVDRip.XviD-VAMPS","uid":5968278,"size":1467878439,"categoryP":"video","categoryS":"movies","magnet":"?xt=urn:btih:4644168dce241f25b44b397fcedac40f6ca6ac66&amp;dn=Salt.UNRATED.DC.DVDRip.XviD-VAMPS&amp;tr=udp%3A%2F%2Ftracker.openbittorrent.com%3A80&amp;tr=udp%3A%2F%2Fopen.demonii.com%3A1337&amp;tr=udp%3A%2F%2Ftracker.coppersurfer.tk%3A6969&amp;tr=udp%3A%2F%2Fexodus.desync.com%3A6969","seeders":0,"leechers":1,"uploader":"TvTeam","files":5,"time":1290188428,"description":". \n  &lt;a href=&quot;\nhttp://www.torrentday.com/&quot; rel=&quot;nofollow&quot; target=&quot;_NEW&quot;&gt;\nhttp://www.torrentday.com/&lt;/a&gt;        :     The Hottest Private Tracker On The Net!!!\n\n\n               www . TorrentDay . Com \n(((((((((((((= Enjoy No RAR releases =))))))))))))))))))))\n\n\n...................................NFO:....................................\n\n.VAMPS:\n\nSalt (2010) Unrated Directors Cut\n &lt;a href=&quot;\nhttp://www.imdb.com/title/tt0944835/&quot; rel=&quot;nofollow&quot; target=&quot;_NEW&quot;&gt;\nhttp://www.imdb.com/title/tt0944835/&lt;/a&gt;\n\nNotes: retail dvd source proof added (menu)\n\nDuration                         : 1h 44mn\nOverall bit rate                 : 1 481 Kbps\n\nVideo\nID                               : 0\nFormat                           : MPEG-4 Visual\nFormat profile                   : Advanced Simple@L5\nFormat settings, BVOP            : Yes\nFormat settings, QPel            : No\nFormat settings, GMC             : No warppoints\nFormat settings, Matrix          : Default (H.263)\nCodec ID                         : XVID\nCodec ID/Hint                    : XviD\nDuration                         : 1h 44mn\nBit rate                         : 1 423 Kbps\nWidth                            : 640 pixels\nHeight                           : 272 pixels\nDisplay aspect ratio             : 2.35:1\nFrame rate                       : 23.976 fps\nColor space                      : YUV\nChroma subsampling               : 4:2:0\nBit depth                        : 8 bits\nScan type                        : Progressive\nBits/(Pixel*Frame)               : 0.341\nStream size                      : 1.03 GiB (76%)\nWriting library                  : XviD 1.2.1\n\nAudio\nID                               : 1\nFormat                           : AC-3\nFormat/Info                      : Audio Coding 3\nMode extension                   : CM (complete main)\nCodec ID                         : 2000\nDuration                         : 1h 44mn\nBit rate mode                    : Constant\nBit rate                         : 448 Kbps\nChannel(s)                       : 6 channels\nChannel positions                : Front: L C R, Side: L R, LFE\nSampling rate                    : 48.0 KHz\nBit depth                        : 16 bits\nStream size                      : 333 MiB (24%)\nAlignment                        : Split accross interleaves\nInterleave, duration             : 42 ms (1.00 video frame)\nInterleave, preload duration     : 500 ms\n\nSubtitles\nID                               : 2\nLanguage                         : English","torrent":{"xt":"urn:btih:4644168dce241f25b44b397fcedac40f6ca6ac66","amp;dn":"Salt.UNRATED.DC.DVDRip.XviD-VAMPS","amp;tr":["udp%3A%2F%2Ftracker.openbittorrent.com%3A80","udp%3A%2F%2Fopen.demonii.com%3A1337","udp%3A%2F%2Ftracker.coppersurfer.tk%3A6969","udp%3A%2F%2Fexodus.desync.com%3A6969"],"infoHash":"4644168dce241f25b44b397fcedac40f6ca6ac66","infoHashBuffer":{"type":"Buffer","data":[70,68,22,141,206,36,31,37,180,75,57,127,206,218,196,15,108,166,172,102]},"announce":[],"urlList":[]}}